<?xml version="1.0" encoding="utf-8" standalone="no"?>
<!DOCTYPE svg PUBLIC "-//W3C//DTD SVG 1.1//EN"
  "http://www.w3.org/Graphics/SVG/1.1/DTD/svg11.dtd">
<svg xmlns:xlink="http://www.w3.org/1999/xlink" width="648pt" height="309.6pt" viewBox="0 0 648 309.6" xmlns="http://www.w3.org/2000/svg" version="1.1">
 <metadata>
  <rdf:RDF xmlns:dc="http://purl.org/dc/elements/1.1/" xmlns:cc="http://creativecommons.org/ns#" xmlns:rdf="http://www.w3.org/1999/02/22-rdf-syntax-ns#">
   <cc:Work>
    <dc:type rdf:resource="http://purl.org/dc/dcmitype/StillImage"/>
    <dc:date>2026-09-12T21:22:44.387118</dc:date>
    <dc:format>image/svg+xml</dc:format>
    <dc:creator>
     <cc:Agent>
      <dc:title>Matplotlib v3.10.0, https://matplotlib.org/</dc:title>
     </cc:Agent>
    </dc:creator>
   </cc:Work>
  </rdf:RDF>
 </metadata>
 <defs>
  <style type="text/css">*{stroke-linejoin: round; stroke-linecap: butt}</style>
 </defs>
 <g id="figure_1">
  <g id="patch_1">
   <path d="M 0 309.6 
L 648 309.6 
L 648 0 
L 0 0 
z
" style="fill: #ffffff"/>
  </g>
  <g id="axes_1">
   <g id="patch_2">
    <path d="M 64.8 222.912 
L 305.723077 222.912 
L 305.723077 49.536 
L 64.8 49.536 
z
" style="fill: #ffffff"/>
   </g>
   <g id="matplotlib.axis_1">
    <g id="xtick_1">
     <g id="line2d_1">
      <defs>
       <path id="m9445ea17a5" d="M 0 0 
L 0 3 
" style="stroke: #202630; stroke-width: 0.7"/>
      </defs>
      <g>
       <use xlink:href="#m9445ea17a5" x="74.219434" y="222.912" style="fill: #202630; stroke: #202630; stroke-width: 0.7"/>
      </g>
     </g>
     <g id="text_1">
      <text style="font-size: 8px; font-family: 'Arial', 'Microsoft YaHei', 'DejaVu Sans'; text-anchor: middle; fill: #202630" x="74.219434" y="235.13825" transform="rotate(-0 74.219434 235.13825)">0</text>
     </g>
    </g>
    <g id="xtick_2">
     <g id="line2d_2">
      <g>
       <use xlink:href="#m9445ea17a5" x="129.357582" y="222.912" style="fill: #202630; stroke: #202630; stroke-width: 0.7"/>
      </g>
     </g>
     <g id="text_2">
      <text style="font-size: 8px; font-family: 'Arial', 'Microsoft YaHei', 'DejaVu Sans'; text-anchor: middle; fill: #202630" x="129.357582" y="235.13825" transform="rotate(-0 129.357582 235.13825)">6</text>
     </g>
    </g>
    <g id="xtick_3">
     <g id="line2d_3">
      <g>
       <use xlink:href="#m9445ea17a5" x="184.495731" y="222.912" style="fill: #202630; stroke: #202630; stroke-width: 0.7"/>
      </g>
     </g>
     <g id="text_3">
      <text style="font-size: 8px; font-family: 'Arial', 'Microsoft YaHei', 'DejaVu Sans'; text-anchor: middle; fill: #202630" x="184.495731" y="235.13825" transform="rotate(-0 184.495731 235.13825)">12</text>
     </g>
    </g>
    <g id="xtick_4">
     <g id="line2d_4">
      <g>
       <use xlink:href="#m9445ea17a5" x="239.633879" y="222.912" style="fill: #202630; stroke: #202630; stroke-width: 0.7"/>
      </g>
     </g>
     <g id="text_4">
      <text style="font-size: 8px; font-family: 'Arial', 'Microsoft YaHei', 'DejaVu Sans'; text-anchor: middle; fill: #202630" x="239.633879" y="235.13825" transform="rotate(-0 239.633879 235.13825)">18</text>
     </g>
    </g>
    <g id="xtick_5">
     <g id="line2d_5">
      <g>
       <use xlink:href="#m9445ea17a5" x="294.772028" y="222.912" style="fill: #202630; stroke: #202630; stroke-width: 0.7"/>
      </g>
     </g>
     <g id="text_5">
      <text style="font-size: 8px; font-family: 'Arial', 'Microsoft YaHei', 'DejaVu Sans'; text-anchor: middle; fill: #202630" x="294.772028" y="235.13825" transform="rotate(-0 294.772028 235.13825)">24</text>
     </g>
    </g>
    <g id="text_6">
     <text style="font-size: 9px; font-family: 'Arial', 'Microsoft YaHei', 'DejaVu Sans'; text-anchor: middle; fill: #202630" x="185.261538" y="248.264344" transform="rotate(-0 185.261538 248.264344)">原始预报提前量 h (小时)</text>
    </g>
   </g>
   <g id="matplotlib.axis_2">
    <g id="ytick_1">
     <g id="line2d_6">
      <defs>
       <path id="mc37377e226" d="M 0 0 
L -3 0 
" style="stroke: #202630; stroke-width: 0.7"/>
      </defs>
      <g>
       <use xlink:href="#mc37377e226" x="64.8" y="207.254757" style="fill: #202630; stroke: #202630; stroke-width: 0.7"/>
      </g>
     </g>
     <g id="text_7">
      <text style="font-size: 8px; font-family: 'Arial', 'Microsoft YaHei', 'DejaVu Sans'; text-anchor: end; fill: #202630" x="58.3" y="210.117882" transform="rotate(-0 58.3 210.117882)">100</text>
     </g>
    </g>
    <g id="ytick_2">
     <g id="line2d_7">
      <g>
       <use xlink:href="#mc37377e226" x="64.8" y="186.88834" style="fill: #202630; stroke: #202630; stroke-width: 0.7"/>
      </g>
     </g>
     <g id="text_8">
      <text style="font-size: 8px; font-family: 'Arial', 'Microsoft YaHei', 'DejaVu Sans'; text-anchor: end; fill: #202630" x="58.3" y="189.751465" transform="rotate(-0 58.3 189.751465)">150</text>
     </g>
    </g>
    <g id="ytick_3">
     <g id="line2d_8">
      <g>
       <use xlink:href="#mc37377e226" x="64.8" y="166.521924" style="fill: #202630; stroke: #202630; stroke-width: 0.7"/>
      </g>
     </g>
     <g id="text_9">
      <text style="font-size: 8px; font-family: 'Arial', 'Microsoft YaHei', 'DejaVu Sans'; text-anchor: end; fill: #202630" x="58.3" y="169.385049" transform="rotate(-0 58.3 169.385049)">200</text>
     </g>
    </g>
    <g id="ytick_4">
     <g id="line2d_9">
      <g>
       <use xlink:href="#mc37377e226" x="64.8" y="146.155507" style="fill: #202630; stroke: #202630; stroke-width: 0.7"/>
      </g>
     </g>
     <g id="text_10">
      <text style="font-size: 8px; font-family: 'Arial', 'Microsoft YaHei', 'DejaVu Sans'; text-anchor: end; fill: #202630" x="58.3" y="149.018632" transform="rotate(-0 58.3 149.018632)">250</text>
     </g>
    </g>
    <g id="ytick_5">
     <g id="line2d_10">
      <g>
       <use xlink:href="#mc37377e226" x="64.8" y="125.789091" style="fill: #202630; stroke: #202630; stroke-width: 0.7"/>
      </g>
     </g>
     <g id="text_11">
      <text style="font-size: 8px; font-family: 'Arial', 'Microsoft YaHei', 'DejaVu Sans'; text-anchor: end; fill: #202630" x="58.3" y="128.652216" transform="rotate(-0 58.3 128.652216)">300</text>
     </g>
    </g>
    <g id="ytick_6">
     <g id="line2d_11">
      <g>
       <use xlink:href="#mc37377e226" x="64.8" y="105.422675" style="fill: #202630; stroke: #202630; stroke-width: 0.7"/>
      </g>
     </g>
     <g id="text_12">
      <text style="font-size: 8px; font-family: 'Arial', 'Microsoft YaHei', 'DejaVu Sans'; text-anchor: end; fill: #202630" x="58.3" y="108.2858" transform="rotate(-0 58.3 108.2858)">350</text>
     </g>
    </g>
    <g id="ytick_7">
     <g id="line2d_12">
      <g>
       <use xlink:href="#mc37377e226" x="64.8" y="85.056258" style="fill: #202630; stroke: #202630; stroke-width: 0.7"/>
      </g>
     </g>
     <g id="text_13">
      <text style="font-size: 8px; font-family: 'Arial', 'Microsoft YaHei', 'DejaVu Sans'; text-anchor: end; fill: #202630" x="58.3" y="87.919383" transform="rotate(-0 58.3 87.919383)">400</text>
     </g>
    </g>
    <g id="ytick_8">
     <g id="line2d_13">
      <g>
       <use xlink:href="#mc37377e226" x="64.8" y="64.689842" style="fill: #202630; stroke: #202630; stroke-width: 0.7"/>
      </g>
     </g>
     <g id="text_14">
      <text style="font-size: 8px; font-family: 'Arial', 'Microsoft YaHei', 'DejaVu Sans'; text-anchor: end; fill: #202630" x="58.3" y="67.552967" transform="rotate(-0 58.3 67.552967)">450</text>
     </g>
    </g>
    <g id="text_15">
     <text style="font-size: 9px; font-family: 'Arial', 'Microsoft YaHei', 'DejaVu Sans'; text-anchor: middle; fill: #202630" x="39.059531" y="136.224" transform="rotate(-90 39.059531 136.224)">指数条件尺度 σ (kW)</text>
    </g>
   </g>
   <g id="line2d_14">
    <path d="M 75.751049 210.821701 
L 76.292529 210.770152 
L 76.834009 210.718532 
L 77.375489 210.66684 
L 77.916969 210.615076 
L 78.45845 210.563241 
L 78.99993 210.511333 
L 79.54141 210.459354 
L 80.08289 210.407302 
L 80.62437 210.355179 
L 81.16585 210.302983 
L 81.70733 210.250714 
L 82.248811 210.198373 
L 82.790291 210.14596 
L 83.331771 210.093474 
L 83.873251 210.040915 
L 84.414731 209.988283 
L 84.956211 209.935578 
L 85.497691 209.8828 
L 86.039172 209.829949 
L 86.580652 209.777024 
L 87.122132 209.724026 
L 87.663612 209.670955 
L 88.205092 209.61781 
L 88.746572 209.564591 
L 89.288052 209.511299 
L 89.829532 209.457932 
L 90.371013 209.404492 
L 90.912493 209.350977 
L 91.453973 209.297388 
L 91.995453 209.243725 
L 92.536933 209.189988 
L 93.078413 209.136176 
L 93.619893 209.082289 
L 94.161374 209.028327 
L 94.702854 208.974291 
L 95.244334 208.92018 
L 95.785814 208.865993 
L 96.327294 208.811732 
L 96.868774 208.757395 
L 97.410254 208.702983 
L 97.951734 208.648495 
L 98.493215 208.593932 
L 99.034695 208.539293 
L 99.576175 208.484579 
L 100.117655 208.429788 
L 100.659135 208.374922 
L 101.200615 208.319979 
L 101.742095 208.26496 
L 102.283576 208.209865 
L 102.825056 208.154694 
L 103.366536 208.099446 
L 103.908016 208.044121 
L 104.449496 207.98872 
L 104.990976 207.933241 
L 105.532456 207.877686 
L 106.073936 207.822054 
L 106.615417 207.766344 
L 107.156897 207.710558 
L 107.698377 207.654694 
L 108.239857 207.598752 
L 108.781337 207.542733 
L 109.322817 207.486636 
L 109.864297 207.430461 
L 110.405778 207.374209 
L 110.947258 207.317878 
L 111.488738 207.26147 
L 112.030218 207.204983 
L 112.571698 207.148417 
L 113.113178 207.091774 
L 113.654658 207.035051 
L 114.196139 206.97825 
L 114.737619 206.92137 
L 115.279099 206.864412 
L 115.820579 206.807374 
L 116.362059 206.750257 
L 116.903539 206.693061 
L 117.445019 206.635786 
L 117.986499 206.578431 
L 118.52798 206.520997 
L 119.06946 206.463483 
L 119.61094 206.405889 
L 120.15242 206.348216 
L 120.6939 206.290462 
L 121.23538 206.232628 
L 121.77686 206.174714 
L 122.318341 206.11672 
L 122.859821 206.058645 
L 123.401301 206.00049 
L 123.942781 205.942254 
L 124.484261 205.883937 
L 125.025741 205.82554 
L 125.567221 205.767061 
L 126.108701 205.708501 
L 126.650182 205.64986 
L 127.191662 205.591138 
L 127.733142 205.532335 
L 128.274622 205.473449 
L 128.816102 205.414482 
L 129.357582 205.355434 
" clip-path="url(#p007f832aa6)" style="fill: none; stroke: #62717d; stroke-width: 1.25; stroke-linecap: square"/>
   </g>
   <g id="line2d_15">
    <path d="M 75.751049 112.778468 
L 76.84948 112.397769 
L 77.947911 112.015999 
L 79.046342 111.633153 
L 80.144773 111.24923 
L 81.243205 110.864226 
L 82.341636 110.478138 
L 83.440067 110.090962 
L 84.538498 109.702697 
L 85.636929 109.313338 
L 86.73536 108.922883 
L 87.833791 108.531329 
L 88.932223 108.138672 
L 90.030654 107.74491 
L 91.129085 107.350039 
L 92.227516 106.954056 
L 93.325947 106.556958 
L 94.424378 106.158742 
L 95.522809 105.759405 
L 96.62124 105.358943 
L 97.719672 104.957354 
L 98.818103 104.554634 
L 99.916534 104.150781 
L 101.014965 103.74579 
L 102.113396 103.339659 
L 103.211827 102.932384 
L 104.310258 102.523963 
L 105.408689 102.114392 
L 106.507121 101.703667 
L 107.605552 101.291786 
L 108.703983 100.878745 
L 109.802414 100.464542 
L 110.900845 100.049172 
L 111.999276 99.632632 
L 113.097707 99.21492 
L 114.196139 98.796032 
L 115.29457 98.375964 
L 116.393001 97.954714 
L 117.491432 97.532277 
L 118.589863 97.108651 
L 119.688294 96.683832 
L 120.786725 96.257817 
L 121.885156 95.830603 
L 122.983588 95.402185 
L 124.082019 94.972562 
L 125.18045 94.541728 
L 126.278881 94.109682 
L 127.377312 93.676419 
L 128.475743 93.241937 
L 129.574174 92.806231 
L 130.672605 92.369298 
L 131.771037 91.931135 
L 132.869468 91.491738 
L 133.967899 91.051104 
L 135.06633 90.609229 
L 136.164761 90.166111 
L 137.263192 89.721744 
L 138.361623 89.276127 
L 139.460055 88.829254 
L 140.558486 88.381124 
L 141.656917 87.931731 
L 142.755348 87.481074 
L 143.853779 87.029147 
L 144.95221 86.575948 
L 146.050641 86.121473 
L 147.149072 85.665719 
L 148.247504 85.208681 
L 149.345935 84.750356 
L 150.444366 84.290741 
L 151.542797 83.829832 
L 152.641228 83.367625 
L 153.739659 82.904116 
L 154.83809 82.439303 
L 155.936521 81.973181 
L 157.034953 81.505746 
L 158.133384 81.036995 
L 159.231815 80.566925 
L 160.330246 80.095531 
L 161.428677 79.622809 
L 162.527108 79.148757 
L 163.625539 78.673369 
L 164.72397 78.196644 
L 165.822402 77.718576 
L 166.920833 77.239162 
L 168.019264 76.758398 
L 169.117695 76.27628 
L 170.216126 75.792805 
L 171.314557 75.307969 
L 172.412988 74.821768 
L 173.51142 74.334197 
L 174.609851 73.845254 
L 175.708282 73.354934 
L 176.806713 72.863234 
L 177.905144 72.370149 
L 179.003575 71.875676 
L 180.102006 71.37981 
L 181.200437 70.882549 
L 182.298869 70.383887 
L 183.3973 69.883821 
L 184.495731 69.382347 
" clip-path="url(#p007f832aa6)" style="fill: none; stroke: #009e73; stroke-width: 1.25; stroke-linecap: square"/>
   </g>
   <g id="line2d_16">
    <path d="M 75.751049 122.710153 
L 77.406431 122.178187 
L 79.061813 121.643963 
L 80.717195 121.107471 
L 82.372577 120.5687 
L 84.02796 120.027642 
L 85.683342 119.484286 
L 87.338724 118.938623 
L 88.994106 118.390643 
L 90.649488 117.840336 
L 92.30487 117.287692 
L 93.960252 116.732701 
L 95.615634 116.175354 
L 97.271017 115.61564 
L 98.926399 115.05355 
L 100.581781 114.489072 
L 102.237163 113.922198 
L 103.892545 113.352917 
L 105.547927 112.781218 
L 107.203309 112.207092 
L 108.858691 111.630527 
L 110.514074 111.051515 
L 112.169456 110.470044 
L 113.824838 109.886104 
L 115.48022 109.299684 
L 117.135602 108.710774 
L 118.790984 108.119363 
L 120.446366 107.525441 
L 122.101748 106.928997 
L 123.757131 106.330021 
L 125.412513 105.728501 
L 127.067895 105.124426 
L 128.723277 104.517787 
L 130.378659 103.908572 
L 132.034041 103.296769 
L 133.689423 102.682369 
L 135.344805 102.06536 
L 137.000188 101.445731 
L 138.65557 100.823471 
L 140.310952 100.198569 
L 141.966334 99.571013 
L 143.621716 98.940792 
L 145.277098 98.307895 
L 146.93248 97.672311 
L 148.587862 97.034027 
L 150.243245 96.393034 
L 151.898627 95.749318 
L 153.554009 95.102869 
L 155.209391 94.453676 
L 156.864773 93.801725 
L 158.520155 93.147006 
L 160.175537 92.489507 
L 161.830919 91.829216 
L 163.486302 91.166121 
L 165.141684 90.500211 
L 166.797066 89.831473 
L 168.452448 89.159895 
L 170.10783 88.485466 
L 171.763212 87.808172 
L 173.418594 87.128003 
L 175.073977 86.444946 
L 176.729359 85.758988 
L 178.384741 85.070117 
L 180.040123 84.378321 
L 181.695505 83.683588 
L 183.350887 82.985904 
L 185.006269 82.285258 
L 186.661651 81.581637 
L 188.317034 80.875028 
L 189.972416 80.165418 
L 191.627798 79.452796 
L 193.28318 78.737147 
L 194.938562 78.018459 
L 196.593944 77.29672 
L 198.249326 76.571916 
L 199.904708 75.844034 
L 201.560091 75.113062 
L 203.215473 74.378985 
L 204.870855 73.641792 
L 206.526237 72.901468 
L 208.181619 72.158 
L 209.837001 71.411375 
L 211.492383 70.661581 
L 213.147765 69.908602 
L 214.803148 69.152426 
L 216.45853 68.393038 
L 218.113912 67.630427 
L 219.769294 66.864577 
L 221.424676 66.095475 
L 223.080058 65.323107 
L 224.73544 64.547459 
L 226.390822 63.768518 
L 228.046205 62.986269 
L 229.701587 62.200699 
L 231.356969 61.411793 
L 233.012351 60.619537 
L 234.667733 59.823916 
L 236.323115 59.024918 
L 237.978497 58.222526 
L 239.633879 57.416727 
" clip-path="url(#p007f832aa6)" style="fill: none; stroke: #e69f00; stroke-width: 1.25; stroke-linecap: square"/>
   </g>
   <g id="line2d_17">
    <path d="M 75.751049 215.031273 
L 77.963382 214.844114 
L 80.175715 214.655892 
L 82.388048 214.466601 
L 84.600381 214.276235 
L 86.812715 214.084788 
L 89.025048 213.892253 
L 91.237381 213.698626 
L 93.449714 213.503898 
L 95.662047 213.308065 
L 97.87438 213.11112 
L 100.086713 212.913056 
L 102.299046 212.713868 
L 104.51138 212.513548 
L 106.723713 212.312091 
L 108.936046 212.109489 
L 111.148379 211.905737 
L 113.360712 211.700828 
L 115.573045 211.494756 
L 117.785378 211.287513 
L 119.997711 211.079093 
L 122.210045 210.869489 
L 124.422378 210.658695 
L 126.634711 210.446704 
L 128.847044 210.233509 
L 131.059377 210.019103 
L 133.27171 209.80348 
L 135.484043 209.586632 
L 137.696376 209.368553 
L 139.908709 209.149235 
L 142.121043 208.928672 
L 144.333376 208.706856 
L 146.545709 208.48378 
L 148.758042 208.259438 
L 150.970375 208.033822 
L 153.182708 207.806924 
L 155.395041 207.578738 
L 157.607374 207.349255 
L 159.819708 207.11847 
L 162.032041 206.886374 
L 164.244374 206.65296 
L 166.456707 206.41822 
L 168.66904 206.182148 
L 170.881373 205.944734 
L 173.093706 205.705972 
L 175.306039 205.465855 
L 177.518373 205.224374 
L 179.730706 204.981521 
L 181.943039 204.737289 
L 184.155372 204.491671 
L 186.367705 204.244657 
L 188.580038 203.996241 
L 190.792371 203.746413 
L 193.004704 203.495167 
L 195.217038 203.242495 
L 197.429371 202.988387 
L 199.641704 202.732836 
L 201.854037 202.475834 
L 204.06637 202.217372 
L 206.278703 201.957443 
L 208.491036 201.696038 
L 210.703369 201.433148 
L 212.915702 201.168765 
L 215.128036 200.90288 
L 217.340369 200.635486 
L 219.552702 200.366573 
L 221.765035 200.096133 
L 223.977368 199.824157 
L 226.189701 199.550636 
L 228.402034 199.275563 
L 230.614367 198.998927 
L 232.826701 198.72072 
L 235.039034 198.440933 
L 237.251367 198.159557 
L 239.4637 197.876583 
L 241.676033 197.592002 
L 243.888366 197.305806 
L 246.100699 197.017983 
L 248.313032 196.728527 
L 250.525366 196.437426 
L 252.737699 196.144672 
L 254.950032 195.850256 
L 257.162365 195.554168 
L 259.374698 195.256398 
L 261.587031 194.956937 
L 263.799364 194.655776 
L 266.011697 194.352904 
L 268.224031 194.048312 
L 270.436364 193.741991 
L 272.648697 193.43393 
L 274.86103 193.124119 
L 277.073363 192.812549 
L 279.285696 192.499209 
L 281.498029 192.184091 
L 283.710362 191.867182 
L 285.922695 191.548474 
L 288.135029 191.227956 
L 290.347362 190.905617 
L 292.559695 190.581449 
L 294.772028 190.255439 
" clip-path="url(#p007f832aa6)" style="fill: none; stroke: #8c6bb1; stroke-width: 1.25; stroke-linecap: square"/>
   </g>
   <g id="patch_3">
    <path d="M 64.8 222.912 
L 64.8 49.536 
" style="fill: none; stroke: #202630; stroke-width: 0.7; stroke-linejoin: miter; stroke-linecap: square"/>
   </g>
   <g id="patch_4">
    <path d="M 64.8 222.912 
L 305.723077 222.912 
" style="fill: none; stroke: #202630; stroke-width: 0.7; stroke-linejoin: miter; stroke-linecap: square"/>
   </g>
   <g id="text_16">
    <text style="font-weight: 700; font-size: 11px; font-family: 'Arial', 'Microsoft YaHei', 'DejaVu Sans'; text-anchor: start; fill: #202630" x="39.503077" y="40.430179" transform="rotate(-0 39.503077 40.430179)">a</text>
   </g>
   <g id="text_17">
    <text style="font-size: 9.5px; font-family: 'Arial', 'Microsoft YaHei', 'DejaVu Sans'; text-anchor: start; fill: #202630" x="64.8" y="40.536" transform="rotate(-0 64.8 40.536)">6月21日历史拟合的指数候选</text>
   </g>
   <g id="legend_1">
    <g id="line2d_18">
     <path d="M 223.959796 120.317594 
L 231.659796 120.317594 
L 239.359796 120.317594 
" style="fill: none; stroke: #62717d; stroke-width: 1.25; stroke-linecap: square"/>
    </g>
    <g id="text_18">
     <text style="font-size: 7px; font-family: 'Arial', 'Microsoft YaHei', 'DejaVu Sans'; text-anchor: start; fill: #202630" x="244.959796" y="122.767594" transform="rotate(-0 244.959796 122.767594)">目标时刻0—6h</text>
    </g>
    <g id="line2d_19">
     <path d="M 223.959796 130.63275 
L 231.659796 130.63275 
L 239.359796 130.63275 
" style="fill: none; stroke: #009e73; stroke-width: 1.25; stroke-linecap: square"/>
    </g>
    <g id="text_19">
     <text style="font-size: 7px; font-family: 'Arial', 'Microsoft YaHei', 'DejaVu Sans'; text-anchor: start; fill: #202630" x="244.959796" y="133.08275" transform="rotate(-0 244.959796 133.08275)">目标时刻6—12h</text>
    </g>
    <g id="line2d_20">
     <path d="M 223.959796 140.947906 
L 231.659796 140.947906 
L 239.359796 140.947906 
" style="fill: none; stroke: #e69f00; stroke-width: 1.25; stroke-linecap: square"/>
    </g>
    <g id="text_20">
     <text style="font-size: 7px; font-family: 'Arial', 'Microsoft YaHei', 'DejaVu Sans'; text-anchor: start; fill: #202630" x="244.959796" y="143.397906" transform="rotate(-0 244.959796 143.397906)">目标时刻12—18h</text>
    </g>
    <g id="line2d_21">
     <path d="M 223.959796 151.263062 
L 231.659796 151.263062 
L 239.359796 151.263062 
" style="fill: none; stroke: #8c6bb1; stroke-width: 1.25; stroke-linecap: square"/>
    </g>
    <g id="text_21">
     <text style="font-size: 7px; font-family: 'Arial', 'Microsoft YaHei', 'DejaVu Sans'; text-anchor: start; fill: #202630" x="244.959796" y="153.713062" transform="rotate(-0 244.959796 153.713062)">目标时刻18—24h</text>
    </g>
   </g>
  </g>
  <g id="axes_2">
   <g id="patch_5">
    <path d="M 387.636923 222.912 
L 628.56 222.912 
L 628.56 49.536 
L 387.636923 49.536 
z
" style="fill: #ffffff"/>
   </g>
   <g id="matplotlib.axis_3">
    <g id="xtick_6">
     <g id="line2d_22">
      <g>
       <use xlink:href="#m9445ea17a5" x="397.056357" y="222.912" style="fill: #202630; stroke: #202630; stroke-width: 0.7"/>
      </g>
     </g>
     <g id="text_22">
      <text style="font-size: 8px; font-family: 'Arial', 'Microsoft YaHei', 'DejaVu Sans'; text-anchor: middle; fill: #202630" x="397.056357" y="235.13825" transform="rotate(-0 397.056357 235.13825)">0</text>
     </g>
    </g>
    <g id="xtick_7">
     <g id="line2d_23">
      <g>
       <use xlink:href="#m9445ea17a5" x="452.194505" y="222.912" style="fill: #202630; stroke: #202630; stroke-width: 0.7"/>
      </g>
     </g>
     <g id="text_23">
      <text style="font-size: 8px; font-family: 'Arial', 'Microsoft YaHei', 'DejaVu Sans'; text-anchor: middle; fill: #202630" x="452.194505" y="235.13825" transform="rotate(-0 452.194505 235.13825)">6</text>
     </g>
    </g>
    <g id="xtick_8">
     <g id="line2d_24">
      <g>
       <use xlink:href="#m9445ea17a5" x="507.332654" y="222.912" style="fill: #202630; stroke: #202630; stroke-width: 0.7"/>
      </g>
     </g>
     <g id="text_24">
      <text style="font-size: 8px; font-family: 'Arial', 'Microsoft YaHei', 'DejaVu Sans'; text-anchor: middle; fill: #202630" x="507.332654" y="235.13825" transform="rotate(-0 507.332654 235.13825)">12</text>
     </g>
    </g>
    <g id="xtick_9">
     <g id="line2d_25">
      <g>
       <use xlink:href="#m9445ea17a5" x="562.470802" y="222.912" style="fill: #202630; stroke: #202630; stroke-width: 0.7"/>
      </g>
     </g>
     <g id="text_25">
      <text style="font-size: 8px; font-family: 'Arial', 'Microsoft YaHei', 'DejaVu Sans'; text-anchor: middle; fill: #202630" x="562.470802" y="235.13825" transform="rotate(-0 562.470802 235.13825)">18</text>
     </g>
    </g>
    <g id="xtick_10">
     <g id="line2d_26">
      <g>
       <use xlink:href="#m9445ea17a5" x="617.608951" y="222.912" style="fill: #202630; stroke: #202630; stroke-width: 0.7"/>
      </g>
     </g>
     <g id="text_26">
      <text style="font-size: 8px; font-family: 'Arial', 'Microsoft YaHei', 'DejaVu Sans'; text-anchor: middle; fill: #202630" x="617.608951" y="235.13825" transform="rotate(-0 617.608951 235.13825)">24</text>
     </g>
    </g>
    <g id="text_27">
     <text style="font-size: 9px; font-family: 'Arial', 'Microsoft YaHei', 'DejaVu Sans'; text-anchor: middle; fill: #202630" x="508.098462" y="248.264344" transform="rotate(-0 508.098462 248.264344)">原始预报提前量 h (小时)</text>
    </g>
   </g>
   <g id="matplotlib.axis_4">
    <g id="ytick_9">
     <g id="line2d_27">
      <g>
       <use xlink:href="#mc37377e226" x="387.636923" y="222.912" style="fill: #202630; stroke: #202630; stroke-width: 0.7"/>
      </g>
     </g>
     <g id="text_28">
      <text style="font-size: 8px; font-family: 'Arial', 'Microsoft YaHei', 'DejaVu Sans'; text-anchor: end; fill: #202630" x="381.136923" y="225.775125" transform="rotate(-0 381.136923 225.775125)">0.0</text>
     </g>
    </g>
    <g id="ytick_10">
     <g id="line2d_28">
      <g>
       <use xlink:href="#mc37377e226" x="387.636923" y="189.888" style="fill: #202630; stroke: #202630; stroke-width: 0.7"/>
      </g>
     </g>
     <g id="text_29">
      <text style="font-size: 8px; font-family: 'Arial', 'Microsoft YaHei', 'DejaVu Sans'; text-anchor: end; fill: #202630" x="381.136923" y="192.751125" transform="rotate(-0 381.136923 192.751125)">0.2</text>
     </g>
    </g>
    <g id="ytick_11">
     <g id="line2d_29">
      <g>
       <use xlink:href="#mc37377e226" x="387.636923" y="156.864" style="fill: #202630; stroke: #202630; stroke-width: 0.7"/>
      </g>
     </g>
     <g id="text_30">
      <text style="font-size: 8px; font-family: 'Arial', 'Microsoft YaHei', 'DejaVu Sans'; text-anchor: end; fill: #202630" x="381.136923" y="159.727125" transform="rotate(-0 381.136923 159.727125)">0.4</text>
     </g>
    </g>
    <g id="ytick_12">
     <g id="line2d_30">
      <g>
       <use xlink:href="#mc37377e226" x="387.636923" y="123.84" style="fill: #202630; stroke: #202630; stroke-width: 0.7"/>
      </g>
     </g>
     <g id="text_31">
      <text style="font-size: 8px; font-family: 'Arial', 'Microsoft YaHei', 'DejaVu Sans'; text-anchor: end; fill: #202630" x="381.136923" y="126.703125" transform="rotate(-0 381.136923 126.703125)">0.6</text>
     </g>
    </g>
    <g id="ytick_13">
     <g id="line2d_31">
      <g>
       <use xlink:href="#mc37377e226" x="387.636923" y="90.816" style="fill: #202630; stroke: #202630; stroke-width: 0.7"/>
      </g>
     </g>
     <g id="text_32">
      <text style="font-size: 8px; font-family: 'Arial', 'Microsoft YaHei', 'DejaVu Sans'; text-anchor: end; fill: #202630" x="381.136923" y="93.679125" transform="rotate(-0 381.136923 93.679125)">0.8</text>
     </g>
    </g>
    <g id="ytick_14">
     <g id="line2d_32">
      <g>
       <use xlink:href="#mc37377e226" x="387.636923" y="57.792" style="fill: #202630; stroke: #202630; stroke-width: 0.7"/>
      </g>
     </g>
     <g id="text_33">
      <text style="font-size: 8px; font-family: 'Arial', 'Microsoft YaHei', 'DejaVu Sans'; text-anchor: end; fill: #202630" x="381.136923" y="60.655125" transform="rotate(-0 381.136923 60.655125)">1.0</text>
     </g>
    </g>
    <g id="text_34">
     <text style="font-size: 9px; font-family: 'Arial', 'Microsoft YaHei', 'DejaVu Sans'; text-anchor: middle; fill: #202630" x="364.228173" y="136.224" transform="rotate(-90 364.228173 136.224)">可信度指标 R</text>
    </g>
   </g>
   <g id="line2d_33">
    <path d="M 398.587972 75.377549 
L 399.129452 75.421153 
L 399.670932 75.464853 
L 400.212412 75.508647 
L 400.753893 75.552537 
L 401.295373 75.596523 
L 401.836853 75.640604 
L 402.378333 75.684782 
L 402.919813 75.729055 
L 403.461293 75.773424 
L 404.002773 75.81789 
L 404.544254 75.862452 
L 405.085734 75.907111 
L 405.627214 75.951867 
L 406.168694 75.996719 
L 406.710174 76.041669 
L 407.251654 76.086715 
L 407.793134 76.131859 
L 408.334614 76.177101 
L 408.876095 76.22244 
L 409.417575 76.267876 
L 409.959055 76.313411 
L 410.500535 76.359044 
L 411.042015 76.404774 
L 411.583495 76.450603 
L 412.124975 76.496531 
L 412.666456 76.542557 
L 413.207936 76.588682 
L 413.749416 76.634905 
L 414.290896 76.681228 
L 414.832376 76.72765 
L 415.373856 76.774171 
L 415.915336 76.820791 
L 416.456816 76.867511 
L 416.998297 76.914331 
L 417.539777 76.96125 
L 418.081257 77.00827 
L 418.622737 77.05539 
L 419.164217 77.102609 
L 419.705697 77.14993 
L 420.247177 77.19735 
L 420.788658 77.244872 
L 421.330138 77.292494 
L 421.871618 77.340217 
L 422.413098 77.388042 
L 422.954578 77.435967 
L 423.496058 77.483994 
L 424.037538 77.532122 
L 424.579018 77.580352 
L 425.120499 77.628684 
L 425.661979 77.677117 
L 426.203459 77.725653 
L 426.744939 77.774291 
L 427.286419 77.823031 
L 427.827899 77.871873 
L 428.369379 77.920818 
L 428.91086 77.969866 
L 429.45234 78.019017 
L 429.99382 78.06827 
L 430.5353 78.117627 
L 431.07678 78.167087 
L 431.61826 78.21665 
L 432.15974 78.266317 
L 432.701221 78.316088 
L 433.242701 78.365962 
L 433.784181 78.41594 
L 434.325661 78.466022 
L 434.867141 78.516209 
L 435.408621 78.5665 
L 435.950101 78.616895 
L 436.491581 78.667394 
L 437.033062 78.717999 
L 437.574542 78.768708 
L 438.116022 78.819522 
L 438.657502 78.870442 
L 439.198982 78.921466 
L 439.740462 78.972596 
L 440.281942 79.023831 
L 440.823423 79.075172 
L 441.364903 79.126619 
L 441.906383 79.178172 
L 442.447863 79.22983 
L 442.989343 79.281595 
L 443.530823 79.333466 
L 444.072303 79.385443 
L 444.613783 79.437527 
L 445.155264 79.489718 
L 445.696744 79.542015 
L 446.238224 79.594419 
L 446.779704 79.64693 
L 447.321184 79.699548 
L 447.862664 79.752274 
L 448.404144 79.805107 
L 448.945625 79.858047 
L 449.487105 79.911095 
L 450.028585 79.964251 
L 450.570065 80.017515 
L 451.111545 80.070887 
L 451.653025 80.124367 
L 452.194505 80.177955 
" clip-path="url(#pd8e52aa1c9)" style="fill: none; stroke: #62717d; stroke-width: 1.25; stroke-linecap: square"/>
   </g>
   <g id="line2d_34">
    <path d="M 398.587972 158.851376 
L 399.686403 159.071713 
L 400.784834 159.29177 
L 401.883265 159.511542 
L 402.981697 159.731028 
L 404.080128 159.950225 
L 405.178559 160.169129 
L 406.27699 160.387738 
L 407.375421 160.606049 
L 408.473852 160.824059 
L 409.572283 161.041765 
L 410.670714 161.259165 
L 411.769146 161.476255 
L 412.867577 161.693033 
L 413.966008 161.909496 
L 415.064439 162.125641 
L 416.16287 162.341467 
L 417.261301 162.556969 
L 418.359732 162.772145 
L 419.458164 162.986993 
L 420.556595 163.201511 
L 421.655026 163.415694 
L 422.753457 163.629542 
L 423.851888 163.84305 
L 424.950319 164.056218 
L 426.04875 164.269041 
L 427.147181 164.481518 
L 428.245613 164.693646 
L 429.344044 164.905423 
L 430.442475 165.116845 
L 431.540906 165.327912 
L 432.639337 165.53862 
L 433.737768 165.748966 
L 434.836199 165.958949 
L 435.93463 166.168566 
L 437.033062 166.377815 
L 438.131493 166.586693 
L 439.229924 166.795198 
L 440.328355 167.003328 
L 441.426786 167.211081 
L 442.525217 167.418454 
L 443.623648 167.625445 
L 444.722079 167.832052 
L 445.820511 168.038272 
L 446.918942 168.244104 
L 448.017373 168.449545 
L 449.115804 168.654594 
L 450.214235 168.859247 
L 451.312666 169.063504 
L 452.411097 169.267361 
L 453.509529 169.470818 
L 454.60796 169.673871 
L 455.706391 169.876519 
L 456.804822 170.07876 
L 457.903253 170.280592 
L 459.001684 170.482013 
L 460.100115 170.683021 
L 461.198546 170.883614 
L 462.296978 171.083791 
L 463.395409 171.283549 
L 464.49384 171.482886 
L 465.592271 171.681801 
L 466.690702 171.880293 
L 467.789133 172.078358 
L 468.887564 172.275996 
L 469.985995 172.473205 
L 471.084427 172.669982 
L 472.182858 172.866327 
L 473.281289 173.062238 
L 474.37972 173.257712 
L 475.478151 173.452749 
L 476.576582 173.647347 
L 477.675013 173.841504 
L 478.773445 174.035219 
L 479.871876 174.228489 
L 480.970307 174.421315 
L 482.068738 174.613693 
L 483.167169 174.805623 
L 484.2656 174.997103 
L 485.364031 175.188131 
L 486.462462 175.378707 
L 487.560894 175.568829 
L 488.659325 175.758495 
L 489.757756 175.947705 
L 490.856187 176.136456 
L 491.954618 176.324748 
L 493.053049 176.512579 
L 494.15148 176.699948 
L 495.249911 176.886854 
L 496.348343 177.073295 
L 497.446774 177.25927 
L 498.545205 177.444779 
L 499.643636 177.629819 
L 500.742067 177.81439 
L 501.840498 177.998491 
L 502.938929 178.18212 
L 504.037361 178.365277 
L 505.135792 178.54796 
L 506.234223 178.730169 
L 507.332654 178.911902 
" clip-path="url(#pd8e52aa1c9)" style="fill: none; stroke: #009e73; stroke-width: 1.25; stroke-linecap: square"/>
   </g>
   <g id="line2d_35">
    <path d="M 398.587972 152.776903 
L 400.243354 153.118592 
L 401.898736 153.459833 
L 403.554118 153.800615 
L 405.209501 154.140928 
L 406.864883 154.480759 
L 408.520265 154.820097 
L 410.175647 155.158932 
L 411.831029 155.497253 
L 413.486411 155.835047 
L 415.141793 156.172306 
L 416.797175 156.509017 
L 418.452558 156.84517 
L 420.10794 157.180755 
L 421.763322 157.51576 
L 423.418704 157.850176 
L 425.074086 158.183991 
L 426.729468 158.517196 
L 428.38485 158.849781 
L 430.040232 159.181734 
L 431.695615 159.513047 
L 433.350997 159.843708 
L 435.006379 160.173709 
L 436.661761 160.503039 
L 438.317143 160.831688 
L 439.972525 161.159647 
L 441.627907 161.486906 
L 443.283289 161.813457 
L 444.938672 162.139288 
L 446.594054 162.464392 
L 448.249436 162.788759 
L 449.904818 163.112379 
L 451.5602 163.435245 
L 453.215582 163.757346 
L 454.870964 164.078674 
L 456.526346 164.399221 
L 458.181729 164.718977 
L 459.837111 165.037935 
L 461.492493 165.356085 
L 463.147875 165.67342 
L 464.803257 165.989931 
L 466.458639 166.305611 
L 468.114021 166.62045 
L 469.769403 166.934442 
L 471.424786 167.247578 
L 473.080168 167.559851 
L 474.73555 167.871253 
L 476.390932 168.181776 
L 478.046314 168.491414 
L 479.701696 168.800158 
L 481.357078 169.108003 
L 483.01246 169.41494 
L 484.667843 169.720962 
L 486.323225 170.026064 
L 487.978607 170.330237 
L 489.633989 170.633476 
L 491.289371 170.935774 
L 492.944753 171.237125 
L 494.600135 171.537521 
L 496.255517 171.836958 
L 497.9109 172.135428 
L 499.566282 172.432926 
L 501.221664 172.729447 
L 502.877046 173.024983 
L 504.532428 173.31953 
L 506.18781 173.613081 
L 507.843192 173.905633 
L 509.498574 174.197178 
L 511.153957 174.487712 
L 512.809339 174.77723 
L 514.464721 175.065727 
L 516.120103 175.353197 
L 517.775485 175.639637 
L 519.430867 175.925041 
L 521.086249 176.209404 
L 522.741631 176.492723 
L 524.397014 176.774993 
L 526.052396 177.05621 
L 527.707778 177.336369 
L 529.36316 177.615466 
L 531.018542 177.893498 
L 532.673924 178.170461 
L 534.329306 178.44635 
L 535.984688 178.721163 
L 537.640071 178.994895 
L 539.295453 179.267544 
L 540.950835 179.539106 
L 542.606217 179.809578 
L 544.261599 180.078957 
L 545.916981 180.347239 
L 547.572363 180.614422 
L 549.227745 180.880504 
L 550.883128 181.14548 
L 552.53851 181.409349 
L 554.193892 181.672109 
L 555.849274 181.933757 
L 557.504656 182.19429 
L 559.160038 182.453706 
L 560.81542 182.712004 
L 562.470802 182.969181 
" clip-path="url(#pd8e52aa1c9)" style="fill: none; stroke: #e69f00; stroke-width: 1.25; stroke-linecap: square"/>
   </g>
   <g id="line2d_36">
    <path d="M 398.587972 71.941554 
L 400.800305 72.088766 
L 403.012638 72.237364 
L 405.224971 72.387357 
L 407.437305 72.538754 
L 409.649638 72.691567 
L 411.861971 72.845805 
L 414.074304 73.001478 
L 416.286637 73.158595 
L 418.49897 73.317168 
L 420.711303 73.477206 
L 422.923636 73.638718 
L 425.135969 73.801716 
L 427.348303 73.966208 
L 429.560636 74.132206 
L 431.772969 74.299718 
L 433.985302 74.468755 
L 436.197635 74.639326 
L 438.409968 74.811443 
L 440.622301 74.985113 
L 442.834634 75.160348 
L 445.046968 75.337158 
L 447.259301 75.515551 
L 449.471634 75.695538 
L 451.683967 75.877129 
L 453.8963 76.060332 
L 456.108633 76.245159 
L 458.320966 76.431619 
L 460.533299 76.61972 
L 462.745633 76.809474 
L 464.957966 77.000888 
L 467.170299 77.193974 
L 469.382632 77.38874 
L 471.594965 77.585195 
L 473.807298 77.783349 
L 476.019631 77.983211 
L 478.231964 78.184791 
L 480.444298 78.388097 
L 482.656631 78.593139 
L 484.868964 78.799925 
L 487.081297 79.008465 
L 489.29363 79.218767 
L 491.505963 79.43084 
L 493.718296 79.644693 
L 495.930629 79.860334 
L 498.142962 80.077773 
L 500.355296 80.297016 
L 502.567629 80.518074 
L 504.779962 80.740953 
L 506.992295 80.965662 
L 509.204628 81.19221 
L 511.416961 81.420603 
L 513.629294 81.650851 
L 515.841627 81.88296 
L 518.053961 82.116938 
L 520.266294 82.352793 
L 522.478627 82.590533 
L 524.69096 82.830163 
L 526.903293 83.071692 
L 529.115626 83.315126 
L 531.327959 83.560472 
L 533.540292 83.807738 
L 535.752626 84.056929 
L 537.964959 84.308051 
L 540.177292 84.561112 
L 542.389625 84.816117 
L 544.601958 85.073073 
L 546.814291 85.331984 
L 549.026624 85.592857 
L 551.238957 85.855697 
L 553.451291 86.120509 
L 555.663624 86.387299 
L 557.875957 86.656071 
L 560.08829 86.92683 
L 562.300623 87.199581 
L 564.512956 87.474328 
L 566.725289 87.751075 
L 568.937622 88.029827 
L 571.149955 88.310586 
L 573.362289 88.593357 
L 575.574622 88.878143 
L 577.786955 89.164947 
L 579.999288 89.453772 
L 582.211621 89.744621 
L 584.423954 90.037496 
L 586.636287 90.332399 
L 588.84862 90.629333 
L 591.060954 90.9283 
L 593.273287 91.2293 
L 595.48562 91.532335 
L 597.697953 91.837407 
L 599.910286 92.144516 
L 602.122619 92.453663 
L 604.334952 92.764847 
L 606.547285 93.07807 
L 608.759619 93.393331 
L 610.971952 93.710629 
L 613.184285 94.029964 
L 615.396618 94.351334 
L 617.608951 94.674739 
" clip-path="url(#pd8e52aa1c9)" style="fill: none; stroke: #8c6bb1; stroke-width: 1.25; stroke-linecap: square"/>
   </g>
   <g id="patch_6">
    <path d="M 387.636923 222.912 
L 387.636923 49.536 
" style="fill: none; stroke: #202630; stroke-width: 0.7; stroke-linejoin: miter; stroke-linecap: square"/>
   </g>
   <g id="patch_7">
    <path d="M 387.636923 222.912 
L 628.56 222.912 
" style="fill: none; stroke: #202630; stroke-width: 0.7; stroke-linejoin: miter; stroke-linecap: square"/>
   </g>
   <g id="text_35">
    <text style="font-weight: 700; font-size: 11px; font-family: 'Arial', 'Microsoft YaHei', 'DejaVu Sans'; text-anchor: start; fill: #202630" x="362.34" y="40.430179" transform="rotate(-0 362.34 40.430179)">b</text>
   </g>
   <g id="text_36">
    <text style="font-size: 9.5px; font-family: 'Arial', 'Microsoft YaHei', 'DejaVu Sans'; text-anchor: start; fill: #202630" x="387.636923" y="40.536" transform="rotate(-0 387.636923 40.536)">同组内由尺度确定的R</text>
   </g>
  </g>
  <g id="text_37">
   <text style="font-size: 7.2px; font-family: 'Arial', 'Microsoft YaHei', 'DejaVu Sans'; text-anchor: start; fill: #62717d" x="77.76" y="300.344625" transform="rotate(-0 77.76 300.344625)">R=1/[1+(σ/s_ref)²]，不是正确概率。本图解释指数候选；主方案按1月验证使用分箱尺度，其R不强制单调。</text>
  </g>
 </g>
 <defs>
  <clipPath id="p007f832aa6">
   <rect x="64.8" y="49.536" width="240.923077" height="173.376"/>
  </clipPath>
  <clipPath id="pd8e52aa1c9">
   <rect x="387.636923" y="49.536" width="240.923077" height="173.376"/>
  </clipPath>
 </defs>
</svg>
